<svg id="Layer_1" enable-background="new 0 0 512 512" height="512" viewBox="0 0 512 512" width="512" xmlns="http://www.w3.org/2000/svg"><g><g><path d="m497 454h-422c-8.284 0-15-6.716-15-15v-306c0-8.284 6.716-15 15-15h422c8.284 0 15 6.716 15 15v306c0 8.284-6.716 15-15 15z" fill="#4793ff"/></g><path d="m497 118h-271v336h271c8.284 0 15-6.716 15-15v-306c0-8.284-6.716-15-15-15z" fill="#525cdd"/><path d="m437 58h-422c-8.284 0-15 6.716-15 15v306c0 8.284 6.716 15 15 15h422c8.284 0 15-6.716 15-15v-306c0-8.284-6.716-15-15-15z" fill="#fff4f4"/><path d="m437 58h-211v336h211c8.284 0 15-6.716 15-15v-306c0-8.284-6.716-15-15-15z" fill="#f6efea"/><g><circle clip-rule="evenodd" cx="241" cy="198.999" fill="#00ddc1" fill-rule="evenodd" r="15"/></g><g><path d="m376.999 214h-75.999c-8.284 0-15-6.716-15-15s6.716-15 15-15h75.998c8.284 0 15 6.716 15 15s-6.715 15-14.999 15z" fill="#00347b"/></g><g><circle clip-rule="evenodd" cx="241" cy="258.999" fill="#00ddc1" fill-rule="evenodd" r="15"/></g><g><path d="m376.999 273.999h-75.999c-8.284 0-15-6.716-15-15s6.716-15 15-15h75.998c8.284 0 15 6.716 15 15s-6.715 15-14.999 15z" fill="#00347b"/></g><g><circle clip-rule="evenodd" cx="241" cy="319" fill="#00ddc1" fill-rule="evenodd" r="15"/></g><g><path d="m376.999 334h-75.999c-8.284 0-15-6.716-15-15s6.716-15 15-15h75.998c8.284 0 15 6.716 15 15s-6.715 15-14.999 15z" fill="#00347b"/></g><g><path d="m154.282 241.204c-1.89 0-3.79-.357-5.597-1.084l-24.685-9.932-24.685 9.931c-4.791 1.928-10.237 1.255-14.416-1.781-4.178-3.036-6.5-8.007-6.148-13.16l1.817-26.545-17.074-20.408c-3.313-3.961-4.357-9.349-2.761-14.26 1.596-4.912 5.606-8.657 10.616-9.914l25.808-6.475 14.133-22.544c2.744-4.375 7.545-7.032 12.71-7.032s9.966 2.657 12.709 7.032l14.133 22.544 25.808 6.475c5.009 1.256 9.02 5.002 10.615 9.914 1.596 4.912.553 10.299-2.761 14.26l-17.073 20.408 1.817 26.546c.353 5.152-1.97 10.124-6.148 13.16-2.602 1.89-5.697 2.865-8.818 2.865z" fill="#ff4a4a"/></g><g><path d="m159.653 300h-71.306c-8.284 0-15-6.716-15-15s6.716-15 15-15h71.306c8.284 0 15 6.716 15 15s-6.716 15-15 15z" fill="#00429d"/></g></g></svg>