<svg width="119" height="120" viewBox="0 0 119 120" fill="none" xmlns="http://www.w3.org/2000/svg">
<path d="M70.3492 19.7768C56.6766 16.1393 42.606 19.583 32.4305 28.3904C28.3744 31.9143 24.9125 36.2919 22.3334 41.4081C16.0562 53.827 16.3348 68.4966 23.0686 80.644L24.1075 82.4807L38.3829 77.372L36.7447 74.75C31.7334 66.7731 31.2324 56.5704 35.4427 48.1187C37.058 44.9908 39.2805 42.1241 42.0239 39.7196C48.2984 34.2389 57.2579 31.3948 67.0795 34.2973L64.9083 43.862L92.372 33.8593L72.5482 10.4484L70.3492 19.7768Z" fill="#3838D1"/>
<path d="M80.9746 43.3839L82.6185 45.9361C87.5922 53.945 88.0616 64.1104 83.8509 72.5626C82.23 75.7594 80.039 78.8161 77.1884 81.247C70.9252 86.5881 62.0038 89.2478 52.2517 86.351L54.4173 76.8562L31.6186 85.0193L26.9912 86.8268L46.7835 110.2L48.982 100.871C62.5851 104.503 76.5861 101.206 86.7499 92.5385C90.9131 88.9882 94.376 84.4578 96.9978 79.2402C103.275 66.8218 102.996 52.1517 96.2627 40.0043L95.2242 38.1681L80.9746 43.3839Z" fill="#FF8272"/>
<path d="M80.9804 43.3872L95.2317 38.1675L96.2697 40.0034C103 52.1486 103.275 66.8182 96.9939 79.238C94.3705 84.4563 90.9068 88.9872 86.742 92.539L77.1835 81.2504C80.0348 78.8188 82.2263 75.761 83.8481 72.5638C88.0613 64.1107 87.5951 53.9461 82.6232 45.9383L80.9804 43.3872Z" fill="#FF8272"/>
<path d="M72.5542 10.4461L92.3719 33.8509L64.9052 43.8616L67.0787 34.2961C57.2581 31.396 48.2976 34.2426 42.0209 39.7254L32.4304 28.399C42.6086 19.589 56.681 16.1419 70.353 19.7754L72.5542 10.4461Z" fill="#3838D1"/>
</svg>
