<svg id="Layer_1" data-name="Layer 1" xmlns="http://www.w3.org/2000/svg" viewBox="0 0 504.23 137.71"><defs><style>.cls-1,.cls-5{fill:#d62e2f;}.cls-2,.cls-8{fill:#3953a4;}.cls-3{font-size:100.26px;letter-spacing:0.04em;}.cls-3,.cls-4{stroke:#000;stroke-miterlimit:10;}.cls-3,.cls-5{font-family:Landasans-Medium, Landasans;font-weight:500;}.cls-4{font-size:100.26px;letter-spacing:0.09em;}.cls-4,.cls-8{font-family:Landasans-UltraLight, Landasans;font-weight:100;}.cls-5,.cls-8{font-size:30.83px;letter-spacing:0.13em;}.cls-6{letter-spacing:0.13em;}.cls-7{letter-spacing:0.13em;}.cls-9{letter-spacing:0.12em;}.cls-10{letter-spacing:0.12em;}</style></defs><rect class="cls-1" x="29.01" y="22.15" width="6.95" height="60.01" rx="2.14"/><rect class="cls-1" x="163.72" y="387.31" width="6.95" height="44.47" rx="2.14" transform="translate(190.03 461.49) rotate(-180)"/><rect class="cls-1" x="153.45" y="397.24" width="6.95" height="24.61" rx="2.14" transform="translate(169.5 461.49) rotate(-180)"/><rect class="cls-1" x="144.35" y="403.33" width="6.95" height="12.42" rx="2.14" transform="translate(151.3 461.49) rotate(180)"/><rect class="cls-2" x="202.91" y="402.25" width="6.95" height="12.42" rx="2.14" transform="translate(268.41 459.33) rotate(180)"/><rect class="cls-2" x="192.88" y="396.7" width="6.95" height="24.61" rx="2.14" transform="translate(248.36 460.41) rotate(-180)"/><rect class="cls-2" x="183.32" y="386.77" width="6.95" height="44.47" rx="2.14" transform="translate(229.24 460.41) rotate(-180)"/><text class="cls-3" transform="translate(88.06 85.92) rotate(0.39)">OUTPUT</text><text class="cls-4" transform="translate(325.64 85.9) rotate(0.77)">LEVEL</text><text class="cls-5" transform="translate(202.4 131.55)">Digi<tspan class="cls-6" x="47.04" y="0">t</tspan><tspan class="cls-7" x="59.01" y="0">al </tspan></text><text class="cls-8" transform="translate(285.65 131.55)">A<tspan class="cls-9" x="13.23" y="0">g</tspan><tspan x="25.77" y="0">e</tspan><tspan class="cls-10" x="38.94" y="0">n</tspan><tspan x="52.29" y="0">cy</tspan></text></svg>