<svg id="Layer_1" enable-background="new 0 0 480.001 480.001" height="512" viewBox="0 0 480.001 480.001" width="512" xmlns="http://www.w3.org/2000/svg"><path d="m342.34 225.24-64.14-103.62c-6.36-10.27-22.2-5.76-22.2 6.32v86.711c0 2.563 1.275 4.946 3.379 6.409 8.836 6.144 14.621 16.367 14.621 27.94 0 44.03-65.93 45.37-67.96 1.62-.571-12.205 5.298-23.079 14.506-29.512 2.129-1.487 3.454-3.871 3.454-6.468v-86.7c0-12.08-15.84-16.59-22.2-6.32l-64.14 103.62c-4.17 6.73-4.75 15.09-1.54 22.33l36.88 83.43c-13.25 0-24 10.75-24 24v12c0 13.25 10.75 24 24 24h10l-8.891 72.02c-.589 4.771 3.133 8.98 7.94 8.98h115.903c4.807 0 8.529-4.209 7.94-8.98l-8.892-72.02h10c13.25 0 24-10.75 24-24v-12c0-13.25-10.75-24-24-24l36.88-83.43c3.21-7.24 2.63-15.6-1.54-22.33z" fill="#cbe3fa"/><g fill="#eef7ff"><path d="m168.66 235.24c-4.17 6.73-4.75 15.09-1.54 22.33l27.494 62.195c2.338 5.289-1.535 11.234-7.317 11.234h-14.297l-36.88-83.43c-3.21-7.24-2.63-15.6 1.54-22.33l64.14-103.62c6.36-10.27 22.2-5.76 22.2 6.32v15.624c0 1.488-.415 2.946-1.198 4.211z"/><path d="m280.172 124.807c2.045 3.305.41 7.54-3.251 8.847-4.395 1.569-7.921 5.586-7.921 11.285v71.358c0 4.891-5.499 7.651-9.504 4.843-2.361-1.656-3.496-4.026-3.496-6.49v-86.71c0-12.08 15.84-16.59 22.2-6.32z"/><path d="m287 266c0 31.947-34.698 41.422-54.523 27.51-5.051-3.544-2.164-11.504 3.977-10.903 17.169 1.681 33.898-8.421 37.025-27.144 1.012-6.058 9.491-6.68 11.577-.903 1.324 3.662 1.944 7.495 1.944 11.44z"/></g><path d="m331 355v12c0 13.25-10.75 24-24 24h-134c-13.25 0-24-10.75-24-24v-12c0-13.25 10.75-24 24-24h134c13.25 0 24 10.75 24 24z" fill="#585966"/><path d="m307.66 347h-109.662c-12.705 0-23.997 10.028-23.998 24.463-.001 13.256-18.291 16.819-23.26 4.53-1.122-2.775-1.74-5.81-1.74-8.993v-12c0-13.255 10.745-24 24-24h134c12.07 0 10.87 16 .66 16z" fill="#6e6f80"/><path d="m297.952 472h-115.903c-4.807 0-8.529-4.209-7.94-8.98l8.891-72.02h114l8.891 72.02c.59 4.771-3.132 8.98-7.939 8.98z" fill="#ff6d7a"/><path d="m204.094 463.162c-.532 4.982-4.573 8.838-9.583 8.838h-12.461c-4.81 0-8.53-4.21-7.94-8.98l8.89-72.02h19.12c5.78 0 10.256 5.062 9.548 10.799-.001 0-7.569 61.316-7.574 61.363z" fill="#ff8c95"/><circle cx="429" cy="223" fill="#ffe773" r="24"/><path d="m266 44c0 8.84-7.16 16-16 16h-20c-8.84 0-16-7.16-16-16v-20c0-8.84 7.16-16 16-16h20c8.84 0 16 7.16 16 16z" fill="#80aaff"/><path d="m52.5 199.05c12.55.769 22.5 11.21 22.5 23.95 0 13.25-10.75 24-24 24s-24-10.75-24-24c0-13.642 11.468-24.81 25.5-23.95z" fill="#ffe773"/><g><path d="m307 323h-128.79l-34.776-78.66c-2.136-4.832-1.751-10.398 1.029-14.891l64.136-103.615c1.434-2.318 3.623-1.991 4.496-1.742.874.249 2.906 1.121 2.906 3.847v91.053c0 4.418 3.582 8 8 8s8-3.582 8-8v-91.053c0-9.034-5.838-16.765-14.528-19.237-8.688-2.471-17.723 1.029-22.478 8.711l-64.136 103.615c-5.561 8.984-6.331 20.118-2.058 29.781l32.84 74.281c-12.053 4.593-20.641 16.265-20.641 29.91v12c0 16.725 13.094 32 32.951 32l-8.891 72.02c-.59 4.781 3.142 8.981 7.95 8.981 3.98 0 7.429-2.969 7.93-7.021 10.783-87.32 10.14-81.455 10.022-82.726-.376-4.072-3.818-7.254-7.962-7.254h-10c-8.822 0-16-7.177-16-16v-12c0-8.818 7.171-15.992 15.987-15.999.119.008 23.721-.001 134.013-.001 8.822 0 16 7.177 16 16v12c0 8.823-7.178 16-16 16h-83.032c-4.418 0-8 3.582-8 8s3.582 8 8 8h8.032v48c0 4.418 3.582 8 8 8s8-3.582 8-8v-48h59c17.645 0 32-14.355 32-32v-12c0-17.645-14.355-32-32-32z"/><path d="m310.207 432.682c-.542-4.385-4.545-7.501-8.92-6.959-4.385.541-7.501 4.535-6.96 8.92l4.733 38.338c.5 4.052 3.949 7.021 7.93 7.021 4.8 0 8.541-4.193 7.95-8.981z"/><path d="m285.006 117.413c-4.754-7.681-13.785-11.183-22.477-8.711-8.69 2.472-14.528 10.202-14.528 19.237v91.053c0 2.952 1.626 5.665 4.23 7.056 21.937 11.722 17.502 48.008-11.59 48.684-12.682.295-25.804-7.16-26.61-24.479-.205-4.414-3.938-7.823-8.363-7.62-4.414.206-7.825 3.95-7.619 8.363 1.243 26.711 22.532 40.206 42.965 39.732 20.367-.474 40.986-14.959 40.986-41.728 0-13.868-6.789-26.674-18-34.475v-86.586c0-2.727 2.032-3.599 2.906-3.848.875-.248 3.06-.576 4.495 1.742l64.136 103.616c2.78 4.492 3.165 10.059 1.029 14.891l-20.419 46.187c-2.345 5.304 1.57 11.237 7.313 11.237 3.071 0 6-1.778 7.321-4.767l20.419-46.187c4.272-9.664 3.503-20.797-2.058-29.781z"/><path d="m51 207c.243 0 .398-.03.5-.017 4.367.554 8.384-2.536 8.941-6.933 10.236-80.938 73.831-145.231 154.65-156.351 4.301-.592 7.322-4.501 6.854-8.79.08-.702.055-.085.055-10.909 0-4.411 3.589-8 8-8h20c4.411 0 8 3.589 8 8v20c0 3.946-2.818 7.267-6.7 7.896-4.361.707-7.324 4.815-6.617 9.177.707 4.364 4.82 7.324 9.177 6.617 11.67-1.891 20.14-11.855 20.14-23.69v-2h153c4.418 0 8-3.582 8-8s-3.582-8-8-8h-153v-2c0-13.234-10.766-24-24-24h-20c-13.234 0-24 10.766-24 24v2h-153c-4.418 0-8 3.582-8 8s3.582 8 8 8h109.083c-60.842 26.204-105.733 82.141-116.563 149.479-15.042 2.608-26.52 15.745-26.52 31.521 0 17.645 14.355 32 32 32s32-14.355 32-32c0-4.418-3.582-8-8-8s-8 3.582-8 8c0 8.823-7.178 16-16 16s-16-7.177-16-16 7.178-16 16-16z"/><path d="m434.477 191.479c-9.637-59.632-45.876-110.274-96.31-139.315-3.829-2.204-8.721-.889-10.925 2.941-2.205 3.829-.888 8.72 2.94 10.925 48.914 28.165 82.326 78.266 89.377 134.021.555 4.388 4.576 7.509 8.978 6.926.154.009.307.023.463.023 8.822 0 16 7.177 16 16s-7.178 16-16 16-16-7.177-16-16c0-4.418-3.582-8-8-8s-8 3.582-8 8c0 17.645 14.355 32 32 32s32-14.355 32-32c0-15.777-11.48-28.915-26.523-31.521z"/></g></svg>