<svg width="94" height="95" viewBox="0 0 94 95" fill="none" xmlns="http://www.w3.org/2000/svg">
<g clip-path="url(#clip0_16_562)">
<path d="M12.2228 94.6194H4.64969C2.08181 94.6194 0 92.5376 0 89.9697V41.8754C0 39.3075 2.08181 37.2257 4.64969 37.2257H12.2228C14.7907 37.2257 16.8725 39.3075 16.8725 41.8754V89.9697C16.8725 92.5376 14.7909 94.6194 12.2228 94.6194Z" fill="#BE96F8"/>
<path d="M12.2228 37.2257H4.64968C4.59672 37.2257 4.54433 37.228 4.49194 37.2297C6.98663 37.3131 8.9839 39.3603 8.9839 41.8754V89.9697C8.9839 92.4848 6.98663 94.532 4.49194 94.6154C4.54433 94.6171 4.59672 94.6194 4.64968 94.6194H12.2228C14.7907 94.6194 16.8725 92.5376 16.8725 89.9697V41.8754C16.8725 39.3073 14.7909 37.2257 12.2228 37.2257Z" fill="#BE96F8"/>
<path d="M37.9318 94.6194H30.3587C27.7908 94.6194 25.709 92.5376 25.709 89.9697V64.1657C25.709 61.5978 27.7908 59.516 30.3587 59.516H37.9318C40.4997 59.516 42.5815 61.5978 42.5815 64.1657V89.9697C42.5815 92.5376 40.4999 94.6194 37.9318 94.6194Z" fill="#FF8272"/>
<path d="M37.932 59.516H30.3589C30.3082 59.516 30.2581 59.5183 30.2078 59.5198C32.7057 59.5998 34.7063 61.6483 34.7063 64.1657V89.9697C34.7063 92.4869 32.7057 94.5356 30.2078 94.6156C30.2581 94.6173 30.3082 94.6194 30.3589 94.6194H37.932C40.4999 94.6194 42.5817 92.5376 42.5817 89.9697V64.1657C42.5817 61.5978 40.5001 59.516 37.932 59.516Z" fill="#FF8272"/>
<path d="M63.6413 94.6194H56.0682C53.5003 94.6194 51.4185 92.5376 51.4185 89.9697V47.4019C51.4185 44.834 53.5003 42.7522 56.0682 42.7522H63.6413C66.2092 42.7522 68.291 44.834 68.291 47.4019V89.9697C68.291 92.5376 66.2092 94.6194 63.6413 94.6194Z" fill="#3838D1"/>
<path d="M63.6412 42.7522H56.0681C56.0197 42.7522 55.9716 42.7543 55.9236 42.7558C58.4245 42.8324 60.4288 44.8824 60.4288 47.4019V89.9697C60.4288 92.4892 58.4245 94.5392 55.9236 94.6158C55.9718 94.6173 56.0197 94.6194 56.0681 94.6194H63.6412C66.2091 94.6194 68.2909 92.5376 68.2909 89.9697V47.4019C68.2909 44.8338 66.2091 42.7522 63.6412 42.7522Z" fill="#3838D1"/>
<path d="M89.3503 94.6194H81.7771C79.2093 94.6194 77.1274 92.5376 77.1274 89.9697V28.98C77.1274 26.4121 79.2093 24.3303 81.7771 24.3303H89.3503C91.9182 24.3303 94 26.4121 94 28.98V89.9697C94 92.5376 91.9182 94.6194 89.3503 94.6194Z" fill="#FF8272"/>
<path d="M89.3502 24.3303H81.777C81.7307 24.3303 81.6851 24.3324 81.6392 24.3337C84.1431 24.4069 86.1508 26.4583 86.1508 28.98V89.9697C86.1508 92.4915 84.1431 94.5428 81.6392 94.616C81.6851 94.6174 81.7309 94.6194 81.777 94.6194H89.3502C91.9181 94.6194 93.9999 92.5376 93.9999 89.9697V28.98C93.9999 26.4121 91.9181 24.3303 89.3502 24.3303Z" fill="#FF8272"/>
<path d="M34.1927 47.6621C33.8239 47.6621 33.4554 47.5193 33.1774 47.2344L8.41911 21.8701C7.87175 21.3095 7.88272 20.4115 8.44332 19.8642C9.0041 19.3168 9.90211 19.3278 10.4493 19.8884L35.2076 45.2525C36.0547 46.1204 35.419 47.6621 34.1927 47.6621Z" fill="#EBE1DC"/>
<path d="M36.0311 46.2009C34.7367 46.2009 34.1241 44.4944 35.1416 43.6765L55.4216 27.3792L81.2907 6.59742C82.7173 5.45164 84.4941 7.66338 83.0676 8.80916L57.1985 29.5909L36.9187 45.8881C36.6568 46.0986 36.3428 46.2009 36.0311 46.2009Z" fill="#EBE1DC"/>
<path d="M8.43638 24.1469C10.8512 24.1469 12.8088 22.1927 12.8088 19.7821C12.8088 17.3714 10.8512 15.4172 8.43638 15.4172C6.02156 15.4172 4.06396 17.3714 4.06396 19.7821C4.06396 22.1927 6.02156 24.1469 8.43638 24.1469Z" fill="#3838D1"/>
<path d="M34.1454 50.6556C36.5602 50.6556 38.5178 48.7014 38.5178 46.2908C38.5178 43.8801 36.5602 41.9259 34.1454 41.9259C31.7305 41.9259 29.7729 43.8801 29.7729 46.2908C29.7729 48.7014 31.7305 50.6556 34.1454 50.6556Z" fill="#3838D1"/>
<path d="M59.8546 30.1081C62.2694 30.1081 64.227 28.1539 64.227 25.7433C64.227 23.3326 62.2694 21.3784 59.8546 21.3784C57.4398 21.3784 55.4822 23.3326 55.4822 25.7433C55.4822 28.1539 57.4398 30.1081 59.8546 30.1081Z" fill="#3838D1"/>
<path d="M85.5636 9.34909C87.9784 9.34909 89.936 7.39488 89.936 4.98424C89.936 2.5736 87.9784 0.619385 85.5636 0.619385C83.1488 0.619385 81.1912 2.5736 81.1912 4.98424C81.1912 7.39488 83.1488 9.34909 85.5636 9.34909Z" fill="#3838D1"/>
</g>
<defs>
<clipPath id="clip0_16_562">
<rect width="94" height="94" fill="white" transform="translate(0 0.619385)"/>
</clipPath>
</defs>
</svg>
